# xmcd
#
# Track frame offsets: 
#        150
#        10772
#        22869
#        36274
#        48161
#        64084
#        79485
#        93466
#        107750
#        124121
#        140063
#        163236
#
# Disc length: 2420 seconds
#
# Revision: 0
# Processed by: cddbd v1.5.2PL0 Copyright (c) Steve Scherf et al.
# Submitted via: ExactAudioCopy v0.99pb4
#
DISCID=9d09720c
DTITLE=Patty Larkin - Step Into The Light
DYEAR=1985
DGENRE=Country
TTITLE0=If I Were Made of Metal
TTITLE1=Round and Around
TTITLE2=It Better Be Me
TTITLE3=Dodge Dart
TTITLE4=Day to Day
TTITLE5=Caffeine
TTITLE6=Step Into the Light
TTITLE7=Back Into Your Arms
TTITLE8=Main Street
TTITLE9=Valentine
TTITLE10=Cupid's Knee
TTITLE11=Not Bad For a Broad
EXTD=
EXTT0=
EXTT1=
EXTT2=
EXTT3=
EXTT4=
EXTT5=
EXTT6=
EXTT7=
EXTT8=
EXTT9=
EXTT10=
EXTT11=
PLAYORDER=
